<svg width="24" height="24" viewBox="0 0 24 24" fill="none" xmlns="http://www.w3.org/2000/svg">
<path d="M3.66601 11.1119C3.25181 11.113 2.84639 11.2314 2.49667 11.4534C2.14695 11.6753 1.86722 11.9918 1.68984 12.3661C1.51246 12.7404 1.44468 13.1573 1.49434 13.5685C1.544 13.9797 1.70907 14.3685 1.97046 14.6898L7.54261 21.5157C7.74129 21.7624 7.99596 21.9581 8.28547 22.0866C8.57498 22.2151 8.89097 22.2727 9.2072 22.2545C9.88354 22.2182 10.4942 21.8564 10.8835 21.2615L22.4582 2.62037C22.4602 2.61726 22.4621 2.61418 22.4642 2.61114C22.5728 2.44439 22.5375 2.11393 22.3134 1.90633C22.2518 1.84932 22.1792 1.80552 22.1 1.77763C22.0209 1.74974 21.9369 1.73834 21.8532 1.74415C21.7694 1.74996 21.6878 1.77284 21.6133 1.81139C21.5387 1.84994 21.4729 1.90335 21.4197 1.96831C21.4156 1.97342 21.4113 1.97845 21.4069 1.9834L9.73358 15.1725C9.68917 15.2227 9.63522 15.2636 9.57487 15.2927C9.51453 15.3219 9.44899 15.3388 9.38207 15.3424C9.31514 15.346 9.24817 15.3363 9.18503 15.3138C9.12189 15.2913 9.06385 15.2565 9.01428 15.2114L5.14012 11.6859C4.73776 11.3171 4.21186 11.1123 3.66601 11.1119Z" fill="url(#paint0_linear_181_50596)"/>
<defs>
<linearGradient id="paint0_linear_181_50596" x1="22.5234" y1="2.19082" x2="11.85" y2="26.7629" gradientUnits="userSpaceOnUse">
<stop stop-color="#F1B378"/>
<stop offset="1" stop-color="#B97637"/>
</linearGradient>
</defs>
</svg>
