<svg width="24" height="24" viewBox="0 0 24 24" fill="none" xmlns="http://www.w3.org/2000/svg">
<path fill-rule="evenodd" clip-rule="evenodd" d="M22.9192 21.085C22.7675 21.2363 22.5844 21.4298 22.3904 21.6344C21.9061 22.1484 21.3011 22.7873 20.9219 23.0465C18.9268 24.4098 16.2577 23.7574 14.3697 22.9708C11.8791 21.9331 9.16755 20.0203 6.73286 17.5853C4.2959 15.1501 2.38331 12.4377 1.34558 9.94855C0.559869 8.06016 -0.0938361 5.39052 1.26969 3.39498C1.52862 3.01552 2.16902 2.41145 2.68232 1.92623C2.88768 1.73275 3.07965 1.54994 3.23143 1.39864C3.50091 1.13051 3.86559 0.97998 4.24574 0.97998C4.62589 0.97998 4.99057 1.13051 5.26005 1.39864L8.93094 5.06846C9.19893 5.33792 9.34936 5.70251 9.34936 6.08255C9.34936 6.46258 9.19893 6.82717 8.93094 7.09663L7.93094 8.09462C7.59698 8.42615 7.37899 8.85664 7.30941 9.32205C7.23984 9.78745 7.32241 10.2629 7.54482 10.6776C8.92026 13.2736 11.0437 15.3966 13.6399 16.7716C14.0545 16.994 14.5299 17.0764 14.9951 17.0067C15.4604 16.9371 15.8907 16.7189 16.222 16.3849L17.2195 15.3869C17.489 15.1187 17.8537 14.9682 18.2338 14.9682C18.614 14.9682 18.9787 15.1187 19.2481 15.3869L22.9192 19.0573C23.1872 19.3267 23.3377 19.6912 23.3377 20.0712C23.3377 20.4511 23.1872 20.8157 22.9192 21.085Z" fill="#F3F5FF"/>
</svg>
