<svg width="24" height="24" viewBox="0 0 24 24" fill="none" xmlns="http://www.w3.org/2000/svg">
<path d="M19.8052 4.18397C17.729 2.115 14.9608 0.965576 12.0387 0.965576C5.96402 0.965576 1.04271 5.86979 1.04271 11.9234C1.04271 13.8391 1.58098 15.7548 2.50373 17.364L0.96582 23.0345L6.80987 21.502C8.42467 22.3449 10.1933 22.8047 12.0387 22.8047C18.1135 22.8047 23.0348 17.9004 23.0348 11.8468C22.9579 9.01155 21.8814 6.25293 19.8052 4.18397ZM17.3445 15.8315C17.1138 16.4445 16.0373 17.0575 15.499 17.1342C15.0377 17.2108 14.4225 17.2108 13.8073 17.0575C13.4229 16.9043 12.8846 16.751 12.2694 16.4445C9.5012 15.2951 7.73261 12.5365 7.57882 12.3066C7.42503 12.1533 6.42539 10.8506 6.42539 9.47132C6.42539 8.09201 7.11745 7.47899 7.34813 7.17247C7.57882 6.86596 7.8864 6.86596 8.11709 6.86596C8.27088 6.86596 8.50156 6.86596 8.65535 6.86596C8.80914 6.86596 9.03983 6.78933 9.27052 7.32573C9.5012 7.86213 10.0395 9.24144 10.1164 9.31807C10.1933 9.47132 10.1933 9.62458 10.1164 9.77784C10.0395 9.93109 9.96257 10.0843 9.80878 10.2376C9.65499 10.3909 9.5012 10.6207 9.42431 10.6974C9.27052 10.8506 9.11673 11.0039 9.27052 11.2338C9.42431 11.5403 9.96258 12.3832 10.8084 13.1495C11.885 14.069 12.7308 14.3755 13.0384 14.5288C13.346 14.6821 13.4998 14.6054 13.6536 14.4522C13.8073 14.2989 14.3456 13.6859 14.4994 13.3794C14.6532 13.0729 14.8839 13.1495 15.1146 13.2261C15.3452 13.3027 16.7294 13.9924 16.9601 14.1457C17.2676 14.2989 17.4214 14.3755 17.4983 14.4522C17.5752 14.6821 17.5752 15.2184 17.3445 15.8315Z" fill="white"/>
</svg>
